Nunito-ExtraBold.ufo
<glyph name="percent" format="1">
  <advance width="2097"/>
  <unicode hex="0025"/>
  <outline>
    <contour>
      <point x="1570" y="-34" type="curve" smooth="yes"/>
      <point x="1798" y="-34"/>
      <point x="1937" y="145"/>
      <point x="1937" y="389" type="curve" smooth="yes"/>
      <point x="1937" y="575"/>
      <point x="1855" y="812"/>
      <point x="1570" y="812" type="curve" smooth="yes"/>
      <point x="1344" y="812"/>
      <point x="1204" y="634"/>
      <point x="1204" y="389" type="curve" smooth="yes"/>
      <point x="1204" y="121"/>
      <point x="1341" y="-34"/>
    </contour>
    <contour>
      <point x="1570" y="123" type="curve" smooth="yes"/>
      <point x="1456" y="123"/>
      <point x="1417" y="220"/>
      <point x="1417" y="389" type="curve" smooth="yes"/>
      <point x="1417" y="559"/>
      <point x="1459" y="656"/>
      <point x="1570" y="656" type="curve" smooth="yes"/>
      <point x="1684" y="656"/>
      <point x="1724" y="554"/>
      <point x="1724" y="389" type="curve" smooth="yes"/>
      <point x="1724" y="211"/>
      <point x="1676" y="123"/>
    </contour>
    <contour>
      <point x="526" y="601" type="curve" smooth="yes"/>
      <point x="747" y="601"/>
      <point x="893" y="774"/>
      <point x="893" y="1024" type="curve" smooth="yes"/>
      <point x="893" y="1212"/>
      <point x="809" y="1446"/>
      <point x="526" y="1446" type="curve" smooth="yes"/>
      <point x="300" y="1446"/>
      <point x="160" y="1268"/>
      <point x="160" y="1024" type="curve" smooth="yes"/>
      <point x="160" y="754"/>
      <point x="298" y="601"/>
    </contour>
    <contour>
      <point x="526" y="757" type="curve" smooth="yes"/>
      <point x="414" y="757"/>
      <point x="372" y="853"/>
      <point x="372" y="1024" type="curve" smooth="yes"/>
      <point x="372" y="1194"/>
      <point x="417" y="1290"/>
      <point x="526" y="1290" type="curve" smooth="yes"/>
      <point x="637" y="1290"/>
      <point x="680" y="1194"/>
      <point x="680" y="1024" type="curve" smooth="yes"/>
      <point x="680" y="853"/>
      <point x="637" y="757"/>
    </contour>
    <contour>
      <point x="647" y="-64" type="curve" smooth="yes"/>
      <point x="682" y="-64"/>
      <point x="706" y="-23"/>
      <point x="727" y="16" type="curve" smooth="yes"/>
      <point x="1450" y="1320" type="line" smooth="yes"/>
      <point x="1463" y="1348"/>
      <point x="1480" y="1379"/>
      <point x="1480" y="1403" type="curve" smooth="yes"/>
      <point x="1480" y="1441"/>
      <point x="1448" y="1473"/>
      <point x="1412" y="1473" type="curve" smooth="yes"/>
      <point x="1387" y="1473"/>
      <point x="1363" y="1460"/>
      <point x="1346" y="1429" type="curve" smooth="yes"/>
      <point x="602" y="82" type="line" smooth="yes"/>
      <point x="589" y="58"/>
      <point x="572" y="25"/>
      <point x="572" y="7" type="curve" smooth="yes"/>
      <point x="572" y="-31"/>
      <point x="606" y="-64"/>
    </contour>
  </outline>
</glyph>
<glyph name="hyphen" format="1">
  <advance width="724"/>
  <unicode hex="002D"/>
  <outline>
    <contour>
      <point x="141" y="431" type="curve" smooth="yes"/>
      <point x="571" y="431" type="line" smooth="yes"/>
      <point x="640" y="431"/>
      <point x="687" y="473"/>
      <point x="687" y="534" type="curve" smooth="yes"/>
      <point x="687" y="596"/>
      <point x="641" y="638"/>
      <point x="571" y="638" type="curve" smooth="yes"/>
      <point x="153" y="638" type="line" smooth="yes"/>
      <point x="83" y="638"/>
      <point x="36" y="596"/>
      <point x="36" y="534" type="curve" smooth="yes"/>
      <point x="36" y="473"/>
      <point x="79" y="431"/>
    </contour>
  </outline>
</glyph>
<glyph name="semicolon" format="1">
  <advance width="633"/>
  <unicode hex="003B"/>
  <outline>
    <component base="comma" xOffset="18" yOffset="95"/>
    <contour>
      <point x="350" y="754" type="curve" smooth="yes"/>
      <point x="442" y="754"/>
      <point x="505" y="823"/>
      <point x="505" y="906" type="curve" smooth="yes"/>
      <point x="505" y="991"/>
      <point x="435" y="1055"/>
      <point x="350" y="1055" type="curve" smooth="yes"/>
      <point x="258" y="1055"/>
      <point x="196" y="983"/>
      <point x="196" y="906" type="curve" smooth="yes"/>
      <point x="196" y="816"/>
      <point x="265" y="754"/>
    </contour>
  </outline>
</glyph>
<glyph name="question" format="1">
  <advance width="1056"/>
  <unicode hex="003F"/>
  <outline>
    <contour>
      <point x="428" y="-49" type="curve" smooth="yes"/>
      <point x="517" y="-49"/>
      <point x="582" y="20"/>
      <point x="582" y="103" type="curve" smooth="yes"/>
      <point x="582" y="190"/>
      <point x="511" y="253"/>
      <point x="428" y="253" type="curve" smooth="yes"/>
      <point x="334" y="253"/>
      <point x="274" y="181"/>
      <point x="274" y="103" type="curve" smooth="yes"/>
      <point x="274" y="20"/>
      <point x="338" y="-49"/>
    </contour>
    <contour>
      <point x="298" y="482" type="line" smooth="yes"/>
      <point x="305" y="327"/>
      <point x="558" y="339"/>
      <point x="555" y="484" type="curve" smooth="yes"/>
      <point x="554" y="538" type="line" smooth="yes"/>
      <point x="551" y="690"/>
      <point x="950" y="753"/>
      <point x="950" y="1085" type="curve" smooth="yes"/>
      <point x="950" y="1362"/>
      <point x="739" y="1476"/>
      <point x="490" y="1476" type="curve" smooth="yes"/>
      <point x="391" y="1476"/>
      <point x="280" y="1464"/>
      <point x="179" y="1435" type="curve" smooth="yes"/>
      <point x="115" y="1416"/>
      <point x="87" y="1368"/>
      <point x="87" y="1322" type="curve" smooth="yes"/>
      <point x="87" y="1253"/>
      <point x="130" y="1205"/>
      <point x="191" y="1205" type="curve" smooth="yes"/>
      <point x="242" y="1205"/>
      <point x="332" y="1228"/>
      <point x="421" y="1228" type="curve" smooth="yes"/>
      <point x="525" y="1228"/>
      <point x="624" y="1189"/>
      <point x="624" y="1060" type="curve" smooth="yes"/>
      <point x="624" y="856"/>
      <point x="289" y="763"/>
      <point x="296" y="551" type="curve" smooth="yes"/>
    </contour>
  </outline>
</glyph>
<glyph name="B" format="1">
  <advance width="1404"/>
  <unicode hex="0042"/>
  <outline>
    <contour>
      <point x="687" y="1438" type="move" name="top"/>
    </contour>
    <contour>
      <point x="472" y="834" type="line"/>
      <point x="472" y="1230" type="line"/>
      <point x="680" y="1230" type="line" smooth="yes"/>
      <point x="836" y="1230"/>
      <point x="951" y="1205"/>
      <point x="951" y="1044" type="curve" smooth="yes"/>
      <point x="951" y="881"/>
      <point x="848" y="834"/>
      <point x="656" y="834" type="curve" smooth="yes"/>
    </contour>
    <contour>
      <point x="472" y="217" type="line"/>
      <point x="472" y="643" type="line"/>
      <point x="642" y="643" type="line" smooth="yes"/>
      <point x="861" y="643"/>
      <point x="992" y="610"/>
      <point x="992" y="431" type="curve" smooth="yes"/>
      <point x="992" y="249"/>
      <point x="884" y="217"/>
      <point x="683" y="217" type="curve" smooth="yes"/>
    </contour>
    <contour>
      <point x="344" y="0" type="curve" smooth="yes"/>
      <point x="798" y="0" type="line" smooth="yes"/>
      <point x="1145" y="0"/>
      <point x="1313" y="196"/>
      <point x="1313" y="395" type="curve" smooth="yes"/>
      <point x="1313" y="594"/>
      <point x="1186" y="722"/>
      <point x="986" y="751" type="curve"/>
      <point x="986" y="755" type="line"/>
      <point x="1160" y="787"/>
      <point x="1255" y="920"/>
      <point x="1255" y="1086" type="curve" smooth="yes"/>
      <point x="1255" y="1382"/>
      <point x="1003" y="1446"/>
      <point x="700" y="1446" type="curve" smooth="yes"/>
      <point x="344" y="1446" type="line" smooth="yes"/>
      <point x="245" y="1446"/>
      <point x="161" y="1393"/>
      <point x="161" y="1290" type="curve" smooth="yes"/>
      <point x="161" y="205" type="line" smooth="yes"/>
      <point x="161" y="44"/>
      <point x="231" y="0"/>
    </contour>
  </outline>
</glyph>
<glyph name="Q" format="1">
  <advance width="1620"/>
  <unicode hex="0051"/>
  <outline>
    <component base="O"/>
    <contour>
      <point x="740" y="54" type="line"/>
      <point x="1248" y="-226" type="line" smooth="yes"/>
      <point x="1314" y="-263"/>
      <point x="1376" y="-247"/>
      <point x="1409" y="-189" type="curve" smooth="yes"/>
      <point x="1444" y="-126"/>
      <point x="1421" y="-72"/>
      <point x="1358" y="-35" type="curve" smooth="yes"/>
      <point x="1054" y="148" type="line"/>
    </contour>
  </outline>
</glyph>
<glyph name="grave" format="1">
  <advance width="569"/>
  <unicode hex="0060"/>
  <outline>
    <contour>
      <point x="446" y="1040" type="move" name="_top"/>
    </contour>
    <contour>
      <point x="447" y="1197" type="curve" smooth="yes"/>
      <point x="480" y="1197"/>
      <point x="506" y="1228"/>
      <point x="506" y="1261" type="curve" smooth="yes"/>
      <point x="506" y="1276"/>
      <point x="496" y="1293"/>
      <point x="485" y="1309" type="curve" smooth="yes"/>
      <point x="275" y="1593" type="line" smooth="yes"/>
      <point x="246" y="1635"/>
      <point x="213" y="1663"/>
      <point x="176" y="1663" type="curve" smooth="yes"/>
      <point x="114" y="1663"/>
      <point x="48" y="1605"/>
      <point x="48" y="1543" type="curve" smooth="yes"/>
      <point x="48" y="1519"/>
      <point x="58" y="1497"/>
      <point x="80" y="1479" type="curve" smooth="yes"/>
      <point x="380" y="1228" type="line" smooth="yes"/>
      <point x="399" y="1209"/>
      <point x="428" y="1197"/>
    </contour>
  </outline>
</glyph>
<glyph name="i" format="1">
  <advance width="537"/>
  <unicode hex="0069"/>
  <outline>
    <contour>
      <point x="276" y="1205" type="curve" smooth="yes"/>
      <point x="370" y="1205"/>
      <point x="434" y="1263"/>
      <point x="434" y="1350" type="curve" smooth="yes"/>
      <point x="434" y="1437"/>
      <point x="371" y="1496"/>
      <point x="277" y="1496" type="curve" smooth="yes"/>
      <point x="182" y="1496"/>
      <point x="119" y="1437"/>
      <point x="119" y="1350" type="curve" smooth="yes"/>
      <point x="119" y="1263"/>
      <point x="182" y="1205"/>
    </contour>
    <contour>
      <point x="277" y="0" type="curve" smooth="yes"/>
      <point x="368" y="0"/>
      <point x="416" y="58"/>
      <point x="416" y="165" type="curve" smooth="yes"/>
      <point x="416" y="839" type="line" smooth="yes"/>
      <point x="416" y="946"/>
      <point x="363" y="1004"/>
      <point x="273" y="1004" type="curve" smooth="yes"/>
      <point x="186" y="1004"/>
      <point x="137" y="946"/>
      <point x="137" y="839" type="curve" smooth="yes"/>
      <point x="137" y="165" type="line" smooth="yes"/>
      <point x="137" y="57"/>
      <point x="187" y="0"/>
    </contour>
  </outline>
</glyph>
<glyph name="j" format="1">
  <advance width="562"/>
  <unicode hex="006A"/>
  <outline>
    <contour>
      <point x="282" y="1205" type="curve" smooth="yes"/>
      <point x="375" y="1205"/>
      <point x="439" y="1263"/>
      <point x="439" y="1350" type="curve" smooth="yes"/>
      <point x="439" y="1437"/>
      <point x="376" y="1496"/>
      <point x="283" y="1496" type="curve" smooth="yes"/>
      <point x="188" y="1496"/>
      <point x="124" y="1437"/>
      <point x="124" y="1350" type="curve" smooth="yes"/>
      <point x="124" y="1263"/>
      <point x="188" y="1205"/>
    </contour>
    <contour>
      <point x="15" y="-386" type="curve" smooth="yes"/>
      <point x="379" y="-386"/>
      <point x="432" y="-262"/>
      <point x="432" y="-3" type="curve" smooth="yes"/>
      <point x="432" y="846" type="line" smooth="yes"/>
      <point x="432" y="953"/>
      <point x="384" y="1004"/>
      <point x="294" y="1004" type="curve" smooth="yes"/>
      <point x="207" y="1004"/>
      <point x="153" y="949"/>
      <point x="153" y="842" type="curve" smooth="yes"/>
      <point x="153" y="-1" type="line" smooth="yes"/>
      <point x="153" y="-162"/>
      <point x="125" y="-184"/>
      <point x="8" y="-186" type="curve" smooth="yes"/>
      <point x="-112" y="-186"/>
      <point x="-107" y="-386"/>
    </contour>
  </outline>
</glyph>
<glyph name="n" format="1">
  <advance width="1208"/>
  <unicode hex="006E"/>
  <outline>
    <contour>
      <point x="631" y="991" type="move" name="top"/>
    </contour>
    <contour>
      <point x="616" y="0" type="move" name="bot"/>
    </contour>
    <contour>
      <point x="262" y="0" type="curve" smooth="yes"/>
      <point x="353" y="0"/>
      <point x="405" y="57"/>
      <point x="405" y="163" type="curve" smooth="yes"/>
      <point x="405" y="572" type="line" smooth="yes"/>
      <point x="405" y="732"/>
      <point x="512" y="837"/>
      <point x="634" y="837" type="curve" smooth="yes"/>
      <point x="732" y="837"/>
      <point x="813" y="771"/>
      <point x="813" y="634" type="curve" smooth="yes"/>
      <point x="813" y="163" type="line" smooth="yes"/>
      <point x="813" y="57"/>
      <point x="862" y="0"/>
      <point x="948" y="0" type="curve" smooth="yes"/>
      <point x="1039" y="0"/>
      <point x="1091" y="57"/>
      <point x="1091" y="163" type="curve" smooth="yes"/>
      <point x="1091" y="636" type="line" smooth="yes"/>
      <point x="1091" y="894"/>
      <point x="934" y="1020"/>
      <point x="743" y="1020" type="curve" smooth="yes"/>
      <point x="580" y="1020"/>
      <point x="463" y="958"/>
      <point x="404" y="839" type="curve"/>
      <point x="404" y="863" type="line" smooth="yes"/>
      <point x="404" y="956"/>
      <point x="353" y="1004"/>
      <point x="268" y="1004" type="curve" smooth="yes"/>
      <point x="180" y="1004"/>
      <point x="127" y="957"/>
      <point x="127" y="862" type="curve" smooth="yes"/>
      <point x="127" y="163" type="line" smooth="yes"/>
      <point x="127" y="57"/>
      <point x="176" y="0"/>
    </contour>
  </outline>
</glyph>
<glyph name="y" format="1">
  <advance width="1093"/>
  <unicode hex="0079"/>
  <outline>
    <contour>
      <point x="579" y="1030" type="move" name="top"/>
    </contour>
    <contour>
      <point x="461" y="-351" type="curve" smooth="yes"/>
      <point x="1047" y="826" type="line" smooth="yes"/>
      <point x="1125" y="989"/>
      <point x="903" y="1097"/>
      <point x="819" y="926" type="curve" smooth="yes"/>
      <point x="567.948" y="422.167" type="line"/>
      <point x="308" y="924" type="line" smooth="yes"/>
      <point x="229" y="1080"/>
      <point x="-3" y="968"/>
      <point x="76" y="817" type="curve" smooth="yes"/>
      <point x="432.286" y="149.91" type="line"/>
      <point x="238" y="-240" type="line" smooth="yes"/>
      <point x="164" y="-393"/>
      <point x="383" y="-511"/>
    </contour>
  </outline>
</glyph>
<glyph name="brokenbar" format="1">
  <advance width="455"/>
  <unicode hex="00A6"/>
  <outline>
    <contour>
      <point x="229" y="849" type="curve" smooth="yes"/>
      <point x="296" y="849"/>
      <point x="330" y="903"/>
      <point x="330" y="970" type="curve" smooth="yes"/>
      <point x="330" y="1491" type="line" smooth="yes"/>
      <point x="330" y="1565"/>
      <point x="291" y="1612"/>
      <point x="230" y="1612" type="curve" smooth="yes"/>
      <point x="175" y="1612"/>
      <point x="129" y="1574"/>
      <point x="129" y="1509" type="curve" smooth="yes"/>
      <point x="129" y="970" type="line" smooth="yes"/>
      <point x="129" y="894"/>
      <point x="167" y="849"/>
    </contour>
    <contour>
      <point x="228" y="-118" type="curve" smooth="yes"/>
      <point x="295" y="-118"/>
      <point x="329" y="-64"/>
      <point x="329" y="3" type="curve" smooth="yes"/>
      <point x="329" y="553" type="line" smooth="yes"/>
      <point x="329" y="629"/>
      <point x="290" y="676"/>
      <point x="229" y="676" type="curve" smooth="yes"/>
      <point x="173" y="676"/>
      <point x="128" y="636"/>
      <point x="128" y="573" type="curve" smooth="yes"/>
      <point x="128" y="3" type="line" smooth="yes"/>
      <point x="128" y="-74"/>
      <point x="166" y="-118"/>
    </contour>
  </outline>
</glyph>
<glyph name="ordfeminine" format="1">
  <advance width="1102"/>
  <unicode hex="00AA"/>
  <outline>
    <contour>
      <point x="445" y="846" type="curve" smooth="yes"/>
      <point x="369" y="849"/>
      <point x="312" y="887"/>
      <point x="312" y="966" type="curve" smooth="yes"/>
      <point x="312" y="1097"/>
      <point x="483" y="1099"/>
      <point x="623" y="1099" type="curve"/>
      <point x="623" y="1046" type="line"/>
      <point x="619" y="918"/>
      <point x="546" y="847"/>
    </contour>
    <contour>
      <point x="378" y="731" type="curve" smooth="yes"/>
      <point x="477" y="731"/>
      <point x="587" y="775"/>
      <point x="627" y="879" type="curve"/>
      <point x="628" y="845" type="line" smooth="yes"/>
      <point x="629" y="778"/>
      <point x="670" y="749"/>
      <point x="717" y="749" type="curve" smooth="yes"/>
      <point x="784" y="749"/>
      <point x="808" y="802"/>
      <point x="808" y="868" type="curve" smooth="yes"/>
      <point x="808" y="1215" type="line" smooth="yes"/>
      <point x="808" y="1435"/>
      <point x="679" y="1513"/>
      <point x="496" y="1513" type="curve" smooth="yes"/>
      <point x="346" y="1513"/>
      <point x="233" y="1479"/>
      <point x="195" y="1397" type="curve" smooth="yes"/>
      <point x="190" y="1389"/>
      <point x="187" y="1381"/>
      <point x="187" y="1372" type="curve" smooth="yes"/>
      <point x="187" y="1341"/>
      <point x="211" y="1317"/>
      <point x="243" y="1317" type="curve" smooth="yes"/>
      <point x="250" y="1317"/>
      <point x="255" y="1318"/>
      <point x="261" y="1320" type="curve" smooth="yes"/>
      <point x="325" y="1343"/>
      <point x="386" y="1371"/>
      <point x="485" y="1371" type="curve" smooth="yes"/>
      <point x="568" y="1371"/>
      <point x="623" y="1339"/>
      <point x="623" y="1248" type="curve" smooth="yes"/>
      <point x="623" y="1202" type="line"/>
      <point x="601" y="1203"/>
      <point x="570" y="1204"/>
      <point x="550" y="1204" type="curve" smooth="yes"/>
      <point x="283" y="1201"/>
      <point x="129" y="1129"/>
      <point x="129" y="952" type="curve" smooth="yes"/>
      <point x="129" y="810"/>
      <point x="238" y="731"/>
    </contour>
  </outline>
</glyph>
<glyph name="multiply" format="1">
  <advance width="1300"/>
  <unicode hex="00D7"/>
  <outline>
    <contour>
      <point x="354" y="115" type="curve" smooth="yes"/>
      <point x="380" y="115"/>
      <point x="407" y="131"/>
      <point x="434" y="159" type="curve" smooth="yes"/>
      <point x="650" y="371" type="line"/>
      <point x="864" y="160" type="line" smooth="yes"/>
      <point x="886" y="137"/>
      <point x="908" y="120"/>
      <point x="937" y="121" type="curve" smooth="yes"/>
      <point x="986" y="121"/>
      <point x="1033" y="169"/>
      <point x="1033" y="220" type="curve" smooth="yes"/>
      <point x="1033" y="249"/>
      <point x="1014" y="277"/>
      <point x="992" y="301" type="curve" smooth="yes"/>
      <point x="783" y="506" type="line"/>
      <point x="998" y="717" type="line" smooth="yes"/>
      <point x="1021" y="742"/>
      <point x="1040" y="769"/>
      <point x="1040" y="800" type="curve" smooth="yes"/>
      <point x="1040" y="852"/>
      <point x="997" y="895"/>
      <point x="948" y="895" type="curve" smooth="yes"/>
      <point x="918" y="895"/>
      <point x="891" y="875"/>
      <point x="867" y="849" type="curve" smooth="yes"/>
      <point x="652" y="639" type="line"/>
      <point x="438" y="850" type="line" smooth="yes"/>
      <point x="413" y="875"/>
      <point x="390" y="889"/>
      <point x="359" y="889" type="curve" smooth="yes"/>
      <point x="308" y="886"/>
      <point x="267" y="837"/>
      <point x="267" y="790" type="curve" smooth="yes"/>
      <point x="267" y="760"/>
      <point x="284" y="735"/>
      <point x="308" y="710" type="curve" smooth="yes"/>
      <point x="518" y="504" type="line"/>
      <point x="303" y="292" type="line" smooth="yes"/>
      <point x="278" y="266"/>
      <point x="261" y="238"/>
      <point x="261" y="208" type="curve" smooth="yes"/>
      <point x="261" y="159"/>
      <point x="305" y="115"/>
    </contour>
  </outline>
</glyph>
<glyph name="Thorn" format="1">
  <advance width="1362"/>
  <unicode hex="00DE"/>
  <outline>
    <contour>
      <point x="486" y="551" type="line"/>
      <point x="486" y="1005" type="line"/>
      <point x="699" y="1005" type="line" smooth="yes"/>
      <point x="867" y="1005"/>
      <point x="991" y="950"/>
      <point x="991" y="780" type="curve" smooth="yes"/>
      <point x="991" y="607"/>
      <point x="863" y="551"/>
      <point x="686" y="551" type="curve" smooth="yes"/>
    </contour>
    <contour>
      <point x="319" y="2" type="curve" smooth="yes"/>
      <point x="422" y="2"/>
      <point x="486" y="91"/>
      <point x="486" y="220" type="curve" smooth="yes"/>
      <point x="486" y="338" type="line"/>
      <point x="723" y="338" type="line" smooth="yes"/>
      <point x="1064" y="338"/>
      <point x="1309" y="474"/>
      <point x="1309" y="780" type="curve" smooth="yes"/>
      <point x="1309" y="1095"/>
      <point x="1039" y="1218"/>
      <point x="719" y="1218" type="curve" smooth="yes"/>
      <point x="486" y="1218" type="line"/>
      <point x="486" y="1287" type="line" smooth="yes"/>
      <point x="486" y="1408"/>
      <point x="413" y="1469"/>
      <point x="318" y="1469" type="curve" smooth="yes"/>
      <point x="205" y="1469"/>
      <point x="163" y="1375"/>
      <point x="163" y="1266" type="curve" smooth="yes"/>
      <point x="163" y="190" type="line" smooth="yes"/>
      <point x="163" y="68"/>
      <point x="220" y="2"/>
    </contour>
  </outline>
</glyph>
<glyph name="dotlessi" format="1">
  <advance width="533"/>
  <unicode hex="0131"/>
  <outline>
    <contour>
      <point x="268" y="991" type="move" name="top"/>
    </contour>
    <contour>
      <point x="265" y="0" type="curve" smooth="yes"/>
      <point x="355" y="0"/>
      <point x="406" y="72"/>
      <point x="406" y="175" type="curve" smooth="yes"/>
      <point x="406" y="833" type="line" smooth="yes"/>
      <point x="406" y="949"/>
      <point x="351" y="1009"/>
      <point x="267" y="1009" type="curve" smooth="yes"/>
      <point x="193" y="1009"/>
      <point x="127" y="958"/>
      <point x="127" y="868" type="curve" smooth="yes"/>
      <point x="127" y="175" type="line" smooth="yes"/>
      <point x="127" y="58"/>
      <point x="181" y="0"/>
    </contour>
  </outline>
</glyph>
<glyph name="florin" format="1">
  <advance width="1266"/>
  <unicode hex="0192"/>
  <outline>
    <contour>
      <point x="96" y="-541" type="curve" smooth="yes"/>
      <point x="301" y="-541"/>
      <point x="474" y="-398"/>
      <point x="575" y="46" type="curve" smooth="yes"/>
      <point x="627" y="272"/>
      <point x="670" y="498"/>
      <point x="713" y="706" type="curve"/>
      <point x="906" y="706" type="line" smooth="yes"/>
      <point x="983" y="706"/>
      <point x="1028" y="749"/>
      <point x="1028" y="815" type="curve" smooth="yes"/>
      <point x="1028" y="872"/>
      <point x="989" y="925"/>
      <point x="922" y="925" type="curve" smooth="yes"/>
      <point x="750" y="925" type="line"/>
      <point x="816" y="1270"/>
      <point x="892" y="1421"/>
      <point x="1027" y="1428" type="curve" smooth="yes"/>
      <point x="1114" y="1434"/>
      <point x="1169" y="1469"/>
      <point x="1169" y="1528" type="curve" smooth="yes"/>
      <point x="1169" y="1573"/>
      <point x="1132" y="1606"/>
      <point x="1051" y="1606" type="curve" smooth="yes"/>
      <point x="798" y="1606"/>
      <point x="605" y="1390"/>
      <point x="531" y="925" type="curve"/>
      <point x="361" y="925" type="line" smooth="yes"/>
      <point x="293" y="925"/>
      <point x="255" y="871"/>
      <point x="255" y="819" type="curve" smooth="yes"/>
      <point x="255" y="742"/>
      <point x="313" y="706"/>
      <point x="390" y="706" type="curve" smooth="yes"/>
      <point x="495" y="706" type="line"/>
      <point x="446" y="457"/>
      <point x="403" y="234"/>
      <point x="356" y="47" type="curve" smooth="yes"/>
      <point x="283" y="-263"/>
      <point x="200" y="-348"/>
      <point x="100" y="-352" type="curve" smooth="yes"/>
      <point x="27" y="-355"/>
      <point x="-30" y="-398"/>
      <point x="-30" y="-460" type="curve" smooth="yes"/>
      <point x="-30" y="-506"/>
      <point x="9" y="-541"/>
    </contour>
  </outline>
</glyph>
<glyph name="dblgravecmb" format="1">
  <advance width="569"/>
  <unicode hex="030F"/>
  <outline>
    <contour>
      <point x="486" y="1086" type="move" name="_top"/>
    </contour>
    <contour>
      <point x="683" y="1212" type="curve" smooth="yes"/>
      <point x="716" y="1212"/>
      <point x="739" y="1238"/>
      <point x="742" y="1267" type="curve" smooth="yes"/>
      <point x="741" y="1288"/>
      <point x="735" y="1304"/>
      <point x="722" y="1323" type="curve" smooth="yes"/>
      <point x="510" y="1608" type="line" smooth="yes"/>
      <point x="479" y="1650"/>
      <point x="448" y="1677"/>
      <point x="411" y="1677" type="curve" smooth="yes"/>
      <point x="349" y="1677"/>
      <point x="285" y="1619"/>
      <point x="285" y="1558" type="curve" smooth="yes"/>
      <point x="285" y="1532"/>
      <point x="295" y="1510"/>
      <point x="316" y="1493" type="curve" smooth="yes"/>
      <point x="605" y="1251" type="line" smooth="yes"/>
      <point x="629" y="1230"/>
      <point x="660" y="1212"/>
    </contour>
    <contour>
      <point x="268" y="1212" type="curve" smooth="yes"/>
      <point x="300" y="1212"/>
      <point x="329" y="1239"/>
      <point x="329" y="1274" type="curve" smooth="yes"/>
      <point x="327" y="1291"/>
      <point x="319" y="1307"/>
      <point x="307" y="1324" type="curve" smooth="yes"/>
      <point x="92" y="1612" type="line" smooth="yes"/>
      <point x="64" y="1651"/>
      <point x="35" y="1677"/>
      <point x="-2" y="1677" type="curve" smooth="yes"/>
      <point x="-59" y="1677"/>
      <point x="-129" y="1625"/>
      <point x="-129" y="1559" type="curve" smooth="yes"/>
      <point x="-129" y="1535"/>
      <point x="-119" y="1511"/>
      <point x="-98" y="1493" type="curve" smooth="yes"/>
      <point x="201" y="1242" type="line" smooth="yes"/>
      <point x="220" y="1224"/>
      <point x="249" y="1212"/>
    </contour>
  </outline>
</glyph>
<glyph name="emdash" format="1">
  <advance width="2048"/>
  <unicode hex="2014"/>
  <outline>
    <contour>
      <point x="98" y="425" type="curve" smooth="yes"/>
      <point x="1909" y="425" type="line" smooth="yes"/>
      <point x="1989" y="425"/>
      <point x="2046" y="456"/>
      <point x="2046" y="535" type="curve" smooth="yes"/>
      <point x="2046" y="606"/>
      <point x="2002" y="644"/>
      <point x="1929" y="644" type="curve" smooth="yes"/>
      <point x="137" y="644" type="line" smooth="yes"/>
      <point x="58" y="644"/>
      <point x="0" y="611"/>
      <point x="0" y="535" type="curve" smooth="yes"/>
      <point x="0" y="480"/>
      <point x="33" y="425"/>
    </contour>
  </outline>
</glyph>
<glyph name="guilsinglright" format="1">
  <advance width="633"/>
  <unicode hex="203A"/>
  <outline>
    <contour>
      <point x="206" y="29" type="curve" smooth="yes"/>
      <point x="250" y="29"/>
      <point x="289" y="59"/>
      <point x="324" y="121" type="curve" smooth="yes"/>
      <point x="561" y="532" type="line"/>
      <point x="324" y="942" type="line" smooth="yes"/>
      <point x="288" y="1006"/>
      <point x="249" y="1034"/>
      <point x="204" y="1034" type="curve" smooth="yes"/>
      <point x="147" y="1034"/>
      <point x="105" y="995"/>
      <point x="105" y="941" type="curve" smooth="yes"/>
      <point x="105" y="923"/>
      <point x="112" y="904"/>
      <point x="120" y="885" type="curve" smooth="yes"/>
      <point x="281" y="532" type="line"/>
      <point x="120" y="178" type="line" smooth="yes"/>
      <point x="112" y="160"/>
      <point x="105" y="140"/>
      <point x="105" y="121" type="curve" smooth="yes"/>
      <point x="105" y="64"/>
      <point x="152" y="29"/>
    </contour>
  </outline>
</glyph>
<glyph name="uni2113" format="1">
  <advance width="807"/>
  <unicode hex="2113"/>
  <outline>
    <contour>
      <point x="551" y="1348" type="curve" smooth="yes"/>
      <point x="592" y="1348"/>
      <point x="633" y="1316"/>
      <point x="633" y="1249" type="curve" smooth="yes"/>
      <point x="633" y="1149"/>
      <point x="576" y="1067"/>
      <point x="466" y="981" type="curve"/>
      <point x="466" y="1183" type="line" smooth="yes"/>
      <point x="466" y="1312"/>
      <point x="509" y="1348"/>
    </contour>
    <contour>
      <point x="551" y="1494" type="curve" smooth="yes"/>
      <point x="394" y="1494"/>
      <point x="202" y="1397"/>
      <point x="201" y="1146" type="curve" smooth="yes"/>
      <point x="200" y="801" type="line"/>
      <point x="23" y="662" type="line" smooth="yes"/>
      <point x="8" y="650"/>
      <point x="1" y="636"/>
      <point x="1" y="623" type="curve" smooth="yes"/>
      <point x="1" y="602"/>
      <point x="18" y="584"/>
      <point x="40" y="584" type="curve" smooth="yes"/>
      <point x="50" y="584"/>
      <point x="59" y="586"/>
      <point x="72" y="596" type="curve" smooth="yes"/>
      <point x="200" y="696" type="line"/>
      <point x="200" y="289" type="line" smooth="yes"/>
      <point x="200" y="60"/>
      <point x="336" y="-17"/>
      <point x="515" y="-17" type="curve" smooth="yes"/>
      <point x="598" y="-17"/>
      <point x="665" y="-14"/>
      <point x="690" y="-10" type="curve" smooth="yes"/>
      <point x="722" y="-5"/>
      <point x="744" y="28"/>
      <point x="744" y="67" type="curve" smooth="yes"/>
      <point x="744" y="116"/>
      <point x="714" y="146"/>
      <point x="670" y="144" type="curve" smooth="yes"/>
      <point x="605" y="141" type="line" smooth="yes"/>
      <point x="513" y="137"/>
      <point x="466" y="183"/>
      <point x="466" y="340" type="curve" smooth="yes"/>
      <point x="466" y="876" type="line"/>
      <point x="691" y="1042"/>
      <point x="780" y="1134"/>
      <point x="780" y="1268" type="curve" smooth="yes"/>
      <point x="780" y="1381"/>
      <point x="707" y="1494"/>
    </contour>
  </outline>
</glyph>
